<svg preserveAspectRatio="none" width="100%" height="100%" overflow="visible" style="display: block;" viewBox="0 0 80 80" fill="none" xmlns="http://www.w3.org/2000/svg">
<g id="Speedometer">
<path id="Vector" d="M70.343 44.7414C70.343 52.6641 67.307 59.8766 62.3352 65.2805C62.2422 65.3818 62.1292 65.4627 62.0033 65.5181C61.8774 65.5735 61.7414 65.6022 61.6039 65.6023H18.3953C18.1164 65.6023 17.8523 65.4844 17.6633 65.2789C12.6922 59.875 9.65625 52.6633 9.65625 44.7414C9.65625 28.0656 23.1078 14.532 39.7516 14.3992C56.5062 14.2648 70.3437 27.9867 70.343 44.7414Z" stroke="var(--stroke-0, #ECB44B)" stroke-width="3" stroke-miterlimit="10"/>
<path id="Vector_2" d="M42.9797 47.7203C41.3344 49.3656 38.6664 49.3656 37.0211 47.7203C35.375 46.0742 35.375 43.407 37.0211 41.7617C37.9734 40.8094 39.268 40.407 40.5086 40.5578C40.6711 40.5773 40.832 40.6062 40.9922 40.6445C41.1891 40.6922 41.3836 40.7539 41.5734 40.8313C42.0859 41.0352 42.5656 41.3461 42.9805 41.7609C43.3953 42.1758 43.7047 42.6555 43.9102 43.1672C43.9875 43.357 44.0492 43.5523 44.0969 43.7492C44.1352 43.9086 44.1641 44.0703 44.1836 44.2328C44.3336 45.4734 43.9312 46.768 42.9797 47.7203Z" stroke="var(--stroke-0, #ECB44B)" stroke-width="3" stroke-miterlimit="10"/>
<path id="Vector_3" d="M29.3617 58.2992H33.393M37.9844 58.2992H42.0156M46.607 58.2992H50.6383M9.6875 44.7656H14.9219M65.1086 44.7656H70.343M13.7508 59.9297L18.2836 57.3125M61.7469 32.2187L66.2805 29.6016M40.0156 19.6719V14.4375M66.2805 59.9297L61.7469 57.3125M18.2836 32.2187L13.7508 29.6016M52.5625 23.0336L55.1797 18.5008M27.4688 23.0336L24.8516 18.5008M57.0047 27.7477L44.1836 44.2328C44.1641 44.0701 44.1351 43.9086 44.0969 43.7492C44.0492 43.5523 43.9875 43.357 43.9102 43.1672C43.7047 42.6555 43.3953 42.1758 42.9805 41.7609C42.5656 41.3461 42.0859 41.0352 41.5734 40.8313C41.3836 40.7539 41.1891 40.6922 40.9922 40.6445C40.832 40.6063 40.6711 40.5773 40.5086 40.5578L56.9938 27.7359C57.0016 27.7305 57.0109 27.7398 57.0047 27.7477Z" stroke="var(--stroke-0, #ECB44B)" stroke-width="3" stroke-miterlimit="10"/>
</g>
</svg>
