<svg preserveAspectRatio="none" width="100%" height="100%" overflow="visible" style="display: block;" viewBox="0 0 60 60" fill="none" xmlns="http://www.w3.org/2000/svg">
<g id="Growth Chart" clip-path="url(#clip0_0_16)">
<path id="Vector" d="M15.7537 37.6372H1.51333C0.675666 37.6372 0 38.2425 0 38.9929V58.6442C0 59.3947 0.675666 60 1.51333 60H15.7537C16.5914 60 17.267 59.3947 17.267 58.6442V38.9929C17.267 38.2425 16.5914 37.6372 15.7537 37.6372ZM14.2423 57.2885H3.02667V40.3469H14.2423V57.2885ZM37.1261 29.2159H22.8759C22.0481 29.2159 21.3625 29.8212 21.3625 30.5717V58.6442C21.3625 59.3947 22.0481 60 22.8759 60H37.1261C37.9539 60 38.6394 59.3947 38.6394 58.6442V30.5717C38.6394 29.8212 37.9539 29.2159 37.1261 29.2159ZM35.6128 57.2885H24.3872V31.9257H35.6128V57.2885ZM58.4867 18.8796H44.2463C43.4086 18.8796 42.733 19.4938 42.733 20.2354V58.6442C42.733 59.3947 43.4086 60 44.2463 60H58.4867C59.3243 60 60 59.3947 60 58.6442V20.2354C60 19.4938 59.3243 18.8796 58.4867 18.8796ZM56.9733 57.2885H45.7577V21.5894H56.9733V57.2885ZM2.37076 32.5664C2.72242 32.5664 3.07409 32.4566 3.36055 32.2354L23.8716 16.3115L32.7461 21.3823C33.3586 21.7327 34.1627 21.6425 34.6605 21.1699L52.2239 4.4885V6.84248C52.2239 7.59115 52.9015 8.19823 53.7372 8.19823C54.5729 8.19823 55.2506 7.59115 55.2506 6.84248V1.35575C55.2506 0.60708 54.5729 0 53.7372 0H46.5677C45.732 0 45.0543 0.60708 45.0543 1.35575C45.0543 2.10443 45.732 2.7115 46.5677 2.7115H49.9361L33.3191 18.4938L24.5472 13.4832C23.9822 13.1611 23.2493 13.2106 22.7435 13.6018L1.38097 30.1894C0.748765 30.6796 0.681594 31.5363 1.22884 32.1009C1.52717 32.4106 1.94798 32.5681 2.37274 32.5681L2.37076 32.5664Z" fill="var(--fill-0, #ECB44B)"/>
</g>
<defs>
<clipPath id="clip0_0_16">
<rect width="60" height="60" fill="white"/>
</clipPath>
</defs>
</svg>
