<svg preserveAspectRatio="none" width="100%" height="100%" overflow="visible" style="display: block;" viewBox="0 0 60 60" fill="none" xmlns="http://www.w3.org/2000/svg">
<g id="target_svgrepo.com">
<path id="Vector" d="M47.5 2.5C47.5 1.11929 48.6192 0 50 0C51.3807 0 52.5 1.11929 52.5 2.5V3.96455L55.6772 0.787235C56.6535 -0.189076 58.2365 -0.189073 59.2127 0.787237C60.1892 1.76355 60.1892 3.34645 59.2127 4.32277L56.0355 7.5H57.5C58.8807 7.5 60 8.6193 60 10C60 11.3807 58.8807 12.5 57.5 12.5H51.0355L31.7542 31.7812C30.778 32.7575 29.195 32.7575 28.2188 31.7812C27.2425 30.805 27.2425 29.222 28.2188 28.2457L47.5 8.96455V2.5Z" fill="var(--fill-0, #ECB44B)"/>
<path id="Vector_2" d="M43.481 9.4727C44.585 8.36875 44.4193 6.52687 43.0455 5.7852C39.1638 3.68952 34.7207 2.5 30 2.5C14.8122 2.5 2.5 14.8122 2.5 30C2.5 45.1877 14.8122 57.5 30 57.5C45.1877 57.5 57.5 45.1877 57.5 30C57.5 25.2885 56.3153 20.8538 54.2273 16.9775C53.4865 15.6023 51.6435 15.4356 50.5387 16.5401L50.464 16.6149C49.6385 17.4404 49.508 18.7208 50.04 19.7599C51.6128 22.8315 52.5 26.3122 52.5 30C52.5 42.4265 42.4265 52.5 30 52.5C17.5736 52.5 7.5 42.4265 7.5 30C7.5 17.5736 17.5736 7.5 30 7.5C33.6955 7.5 37.183 8.39095 40.2593 9.96978C41.2988 10.5032 42.5805 10.3732 43.4067 9.5471L43.481 9.4727Z" fill="var(--fill-0, #ECB44B)"/>
<path id="Vector_3" d="M35.9748 16.979C37.1563 15.7976 36.859 13.8082 35.2655 13.306C33.6038 12.7824 31.8348 12.5 30 12.5C20.335 12.5 12.5 20.335 12.5 30C12.5 39.665 20.335 47.5 30 47.5C39.665 47.5 47.5 39.665 47.5 30C47.5 28.1755 47.2208 26.416 46.7028 24.7622C46.2028 23.1665 44.2115 22.8674 43.0293 24.0499L42.7985 24.2806C42.0955 24.9834 41.8988 26.031 42.1368 26.996C42.374 27.9582 42.5 28.9645 42.5 30C42.5 36.9035 36.9035 42.5 30 42.5C23.0964 42.5 17.5 36.9035 17.5 30C17.5 23.0964 23.0964 17.5 30 17.5C31.043 17.5 32.0563 17.6277 33.025 17.8685C33.9913 18.1087 35.0415 17.9124 35.7455 17.2083L35.9748 16.979Z" fill="var(--fill-0, #ECB44B)"/>
<path id="Vector_4" d="M27.695 22.8784C28.7185 22.5371 29.2335 23.7202 28.4705 24.4832L26.4567 26.4973C24.5063 28.4475 24.5063 31.6095 26.4567 33.5597C28.407 35.51 31.569 35.51 33.5192 33.5597L35.5078 31.5713C36.2723 30.8068 37.4555 31.3253 37.1073 32.3493C36.1025 35.3023 33.2838 37.5 30 37.5C25.8577 37.5 22.5 34.1423 22.5 30C22.5 26.699 24.7207 23.87 27.695 22.8784Z" fill="var(--fill-0, #ECB44B)"/>
</g>
</svg>
