<svg preserveAspectRatio="none" width="100%" height="100%" overflow="visible" style="display: block;" viewBox="0 0 60 48.75" fill="none" xmlns="http://www.w3.org/2000/svg">
<g id="79-users">
<path id="Vector" d="M30 28.125C35.1777 28.125 39.375 23.9277 39.375 18.75C39.375 13.5723 35.1777 9.375 30 9.375C24.8223 9.375 20.625 13.5723 20.625 18.75C20.625 23.9277 24.8223 28.125 30 28.125Z" stroke="var(--stroke-0, #ECB44B)" stroke-width="3.75" stroke-linecap="round" stroke-linejoin="round"/>
<path id="Vector_2" d="M43.125 46.875C43.125 43.394 41.7422 40.0556 39.2808 37.5942C36.8194 35.1328 33.481 33.75 30 33.75C26.519 33.75 23.1806 35.1328 20.7192 37.5942C18.2578 40.0556 16.875 43.394 16.875 46.875H43.125Z" stroke="var(--stroke-0, #ECB44B)" stroke-width="3.75" stroke-linecap="round" stroke-linejoin="round"/>
<path id="Vector_3" d="M45 20.625C46.598 20.625 48.1695 20.2165 49.5653 19.4383C50.961 18.6601 52.1347 17.5381 52.9749 16.1787C53.815 14.8194 54.2937 13.2678 54.3655 11.6714C54.4374 10.075 54.0999 8.4867 53.3853 7.05738C52.6706 5.62805 51.6024 4.40514 50.2822 3.50475C48.962 2.60436 47.4335 2.0564 45.8419 1.91288C44.2504 1.76937 42.6485 2.03508 41.1885 2.68477C39.7285 3.33447 38.4588 4.34658 37.5 5.625" stroke="var(--stroke-0, #ECB44B)" stroke-width="3.75" stroke-linecap="round" stroke-linejoin="round"/>
<path id="Vector_4" d="M46.875 39.375H58.125C58.125 35.894 56.7422 32.5556 54.2808 30.0942C51.8194 27.6328 48.481 26.25 45 26.25" stroke="var(--stroke-0, #ECB44B)" stroke-width="3.75" stroke-linecap="round" stroke-linejoin="round"/>
<path id="Vector_5" d="M22.5 5.625C21.5412 4.34658 20.2715 3.33447 18.8115 2.68477C17.3515 2.03508 15.7496 1.76937 14.1581 1.91288C12.5665 2.0564 11.038 2.60436 9.7178 3.50475C8.39757 4.40514 7.32941 5.62805 6.61474 7.05738C5.90008 8.4867 5.56265 10.075 5.63448 11.6714C5.7063 13.2678 6.18501 14.8194 7.02515 16.1787C7.86528 17.5381 9.03895 18.6601 10.4347 19.4383C11.8305 20.2165 13.402 20.625 15 20.625" stroke="var(--stroke-0, #ECB44B)" stroke-width="3.75" stroke-linecap="round" stroke-linejoin="round"/>
<path id="Vector_6" d="M15 26.25C11.519 26.25 8.18064 27.6328 5.71922 30.0942C3.25781 32.5556 1.875 35.894 1.875 39.375H13.125" stroke="var(--stroke-0, #ECB44B)" stroke-width="3.75" stroke-linecap="round" stroke-linejoin="round"/>
</g>
</svg>
